<?xml version="1.0" encoding="utf-8"?>
<!-- Generator: Adobe Illustrator 22.0.1, SVG Export Plug-In . SVG Version: 6.00 Build 0)  -->
<svg version="1.1" id="Layer_1" xmlns="http://www.w3.org/2000/svg" xmlns:xlink="http://www.w3.org/1999/xlink" x="0px" y="0px"
	 viewBox="0 0 792 180" style="enable-background:new 0 0 792 180;" xml:space="preserve">
<style type="text/css">
	.st0{fill:#8B233F;}
	.st1{fill:#DDDDDD;}
	.st2{fill:#B5B5B5;}
</style>
<title>Innovei</title>
<circle class="st0" cx="154.4" cy="46.7" r="32.1"/>
<path class="st1" d="M226.4,98.7h-144c0,0-17.4,51.9-17.4,57.4h178.7C243.7,150.6,226.4,98.7,226.4,98.7z"/>
<path class="st1" d="M108.6,46.7L82.3,98.7l-48.2,30.9c0,0,19.6-47.6,24.1-52.1S108.6,46.7,108.6,46.7z"/>
<path class="st2" d="M200.1,46.7l26.3,52.1l48.2,30.9c0,0-19.6-47.6-24.1-52.1S200.1,46.7,200.1,46.7z"/>
<path class="st2" d="M309.2,129.6V56.9h9.6v72.8H309.2z"/>
<path class="st0" d="M736.3,80.2c4.5,0,6.8,1.6,6.8,4.4c0,3.7-6.7,17.2-6.7,29.1c0,7.6,0.2,8.9,4.6,8.9c10,0,8-5,14.2-5
	c0.9,0,2.7,0.1,2.7,0.6c0,1.3-11,11.4-18.6,11.4c-6,0-7.8-3.3-7.8-20.5C731.5,88.9,732.8,80.2,736.3,80.2z"/>
<path class="st0" d="M750.7,55.3c0-3.3-1.5-4.8-3.4-4.8s-19,17.7-19,20.2c0,0.4,1.1,0.6,2.1,0.6c0.6,0,7.5-4.8,10.7-7.3
	S750.7,57.8,750.7,55.3z"/>
<path class="st2" d="M338,129.6V69.3h10.6l41.1,47.3V69.3h9.9v60.3H389l-41.1-47.4v47.4H338z"/>
<path class="st2" d="M417,129.6V69.3h10.6l41.1,47.3V69.3h9.9v60.3h-10.7l-41.1-47.4v47.4H417z"/>
<path class="st2" d="M493,100.3c0-10,3.5-17.8,10.5-23.5c7-5.7,16-8.5,27-8.5c6.7-0.1,13.4,1.3,19.6,4c5.4,2.3,10,6.2,13.3,11.1
	c3.1,4.8,4.7,10.5,4.6,16.2c0.1,5.8-1.6,11.6-4.8,16.4c-3.3,5-8.1,8.8-13.6,11c-6,2.5-12.5,3.8-19,3.7c-6.8,0.1-13.6-1.3-19.8-4.1
	c-5.4-2.4-10-6.3-13.2-11.2C494.6,110.9,493,105.6,493,100.3z M503.7,100.4c0,7.3,2.5,13,7.6,17.2c5.1,4.2,11.4,6.3,19.1,6.3
	c7.8,0,14.2-2.1,19.3-6.3c5-4.2,7.6-10.2,7.6-18c0.1-4.5-1-8.9-3.2-12.8c-2.2-3.7-5.5-6.7-9.5-8.5c-4.4-2.1-9.2-3.1-14-3
	c-6.8-0.2-13.5,1.9-19,5.8C506.3,84.9,503.6,91.3,503.7,100.4L503.7,100.4z"/>
<path class="st2" d="M603.6,129.6l-30.3-60.3h11.2l20.4,43.8c1.6,3.5,3,6.8,4.1,9.9c1.2-3.3,2.6-6.6,4.2-9.9l21.2-43.8h10.6
	l-30.7,60.3H603.6z"/>
<path class="st2" d="M654.4,129.6V69.3h56.6v7.1h-46.3v18.5h43.3v7.1h-43.3v20.5h48.1v7.1H654.4z"/>
</svg>
