<svg id="Layer_1" data-name="Layer 1" xmlns="http://www.w3.org/2000/svg" viewBox="0 0 792 180"><title>Innovei</title><circle cx="154.35" cy="46.65" r="32.1" style="fill:#8b233f"/><path d="M226.36,98.74h-144S65,150.65,65,156.11H243.71C243.71,150.65,226.36,98.74,226.36,98.74Z" style="fill:#ddd"/><path d="M108.6,46.65,82.34,98.74l-48.21,30.9S53.69,82.06,58.2,77.55,108.6,46.65,108.6,46.65Z" style="fill:#ddd"/><path d="M200.11,46.65l26.25,52.09,48.22,30.9S255,82.06,250.5,77.55,200.11,46.65,200.11,46.65Z" style="fill:#848889"/><path d="M309.18,129.64V56.89h9.63v72.75Z" style="fill:#848889"/><path d="M736.33,80.23c4.51,0,6.76,1.58,6.76,4.36,0,3.71-6.69,17.18-6.69,29.14,0,7.57.18,8.87,4.58,8.87,10,0,8-5,14.22-5,.93,0,2.67.1,2.67.62,0,1.25-11,11.4-18.58,11.4-6,0-7.81-3.27-7.81-20.48C731.48,88.88,732.8,80.23,736.33,80.23Z" style="fill:#8b233f"/><path d="M750.71,55.33c0-3.35-1.49-4.81-3.41-4.81s-19,17.74-19,20.2c0,.45,1.09.55,2.07.55.58,0,7.55-4.8,10.68-7.34S750.71,57.81,750.71,55.33Z" style="fill:#8b233f"/><path d="M338,129.64V69.33h10.63l41.14,47.35V69.33h9.94v60.31H389L347.89,82.25v47.39Z" style="fill:#848889"/><path d="M417,129.64V69.33h10.63l41.15,47.35V69.33h9.94v60.31H468.06L426.92,82.25v47.39Z" style="fill:#848889"/><path d="M493,100.27q0-15,10.47-23.51t27-8.5a46.46,46.46,0,0,1,19.56,4A30.16,30.16,0,0,1,563.3,83.38a29.36,29.36,0,0,1,4.57,16.19A28.93,28.93,0,0,1,563.06,116a29.74,29.74,0,0,1-13.62,11,48.44,48.44,0,0,1-19,3.72,45.74,45.74,0,0,1-19.77-4.11,30.54,30.54,0,0,1-13.2-11.23A27.82,27.82,0,0,1,493,100.27Zm10.69.12q0,10.9,7.61,17.18t19.1,6.27q11.7,0,19.27-6.33t7.56-18A24.84,24.84,0,0,0,554,86.67a21.49,21.49,0,0,0-9.45-8.51,31.53,31.53,0,0,0-14-3A31.16,31.16,0,0,0,511.58,81Q503.65,86.79,503.65,100.39Z" style="fill:#848889"/><path d="M603.62,129.64,573.27,69.33h11.22l20.36,43.81c1.63,3.52,3,6.81,4.11,9.88q1.81-4.93,4.22-9.88l21.16-43.81h10.58l-30.67,60.31Z" style="fill:#848889"/><path d="M654.43,129.64V69.33h56.64v7.12H664.8V94.92h43.33V102H664.8v20.52h48.09v7.12Z" style="fill:#848889"/></svg>